<svg width="36" height="35" viewBox="0 0 36 35" fill="none" xmlns="http://www.w3.org/2000/svg">
<path d="M28.0845 30.4938H7.91573C7.77635 30.4935 7.63854 30.4643 7.51103 30.4081C7.38352 30.3518 7.26909 30.2696 7.17501 30.1668C7.08092 30.064 7.00922 29.9427 6.96445 29.8107C6.91968 29.6787 6.90282 29.5389 6.91494 29.4L8.70869 11.3531C8.7343 11.1051 8.85062 10.8752 9.03533 10.7077C9.22003 10.5401 9.46011 10.4467 9.70948 10.4453H26.2907C26.5368 10.4446 26.7748 10.5336 26.96 10.6956C27.1453 10.8577 27.265 11.0817 27.297 11.3258L29.0907 29.3727C29.107 29.5141 29.093 29.6574 29.0498 29.7931C29.0066 29.9288 28.935 30.0537 28.8399 30.1597C28.7448 30.2656 28.6283 30.3502 28.498 30.4078C28.3678 30.4654 28.2269 30.4947 28.0845 30.4938V30.4938Z" stroke="#382519"/>
<path d="M12.6787 13.2727V9.84375C12.6787 8.43251 13.2393 7.07907 14.2372 6.08117C15.2351 5.08327 16.5886 4.52266 17.9998 4.52266C19.411 4.52266 20.7645 5.08327 21.7624 6.08117C22.7603 7.07907 23.3209 8.43251 23.3209 9.84375V13.2891" stroke="#382519"/>
<path d="M12.6787 14.3664C13.2828 14.3664 13.7725 13.8767 13.7725 13.2727C13.7725 12.6686 13.2828 12.1789 12.6787 12.1789C12.0746 12.1789 11.585 12.6686 11.585 13.2727C11.585 13.8767 12.0746 14.3664 12.6787 14.3664Z" stroke="#382519"/>
<path d="M23.3213 14.3664C23.9254 14.3664 24.415 13.8767 24.415 13.2727C24.415 12.6686 23.9254 12.1789 23.3213 12.1789C22.7172 12.1789 22.2275 12.6686 22.2275 13.2727C22.2275 13.8767 22.7172 14.3664 23.3213 14.3664Z" stroke="#382519"/>
</svg>
