<svg width="35" height="36" viewBox="0 0 35 36" fill="none" xmlns="http://www.w3.org/2000/svg">
<path d="M27.5845 31.1604H7.41573C7.27635 31.1602 7.13854 31.131 7.01103 31.0747C6.88352 31.0184 6.76909 30.9362 6.67501 30.8334C6.58092 30.7306 6.50922 30.6093 6.46445 30.4773C6.41968 30.3453 6.40282 30.2055 6.41494 30.0666L8.2087 12.0198C8.2343 11.7717 8.35062 11.5418 8.53533 11.3743C8.72003 11.2067 8.96011 11.1133 9.20948 11.1119H25.7907C26.0368 11.1112 26.2748 11.2002 26.46 11.3623C26.6453 11.5243 26.765 11.7484 26.797 11.9924L28.5907 30.0393C28.607 30.1807 28.593 30.324 28.5498 30.4597C28.5066 30.5954 28.435 30.7203 28.3399 30.8263C28.2448 30.9323 28.1283 31.0168 27.9981 31.0744C27.8678 31.132 27.7269 31.1613 27.5845 31.1604V31.1604Z" stroke="#D78878"/>
<path d="M12.1787 13.9393V10.5104C12.1787 9.09918 12.7393 7.74574 13.7372 6.74784C14.7351 5.74994 16.0886 5.18933 17.4998 5.18933C18.911 5.18933 20.2645 5.74994 21.2624 6.74784C22.2603 7.74574 22.8209 9.09918 22.8209 10.5104V13.9557" stroke="#D78878"/>
<path d="M12.1787 15.0331C12.7828 15.0331 13.2725 14.5434 13.2725 13.9393C13.2725 13.3353 12.7828 12.8456 12.1787 12.8456C11.5746 12.8456 11.085 13.3353 11.085 13.9393C11.085 14.5434 11.5746 15.0331 12.1787 15.0331Z" stroke="#D78878"/>
<path d="M22.8213 15.0331C23.4254 15.0331 23.915 14.5434 23.915 13.9393C23.915 13.3353 23.4254 12.8456 22.8213 12.8456C22.2172 12.8456 21.7275 13.3353 21.7275 13.9393C21.7275 14.5434 22.2172 15.0331 22.8213 15.0331Z" stroke="#D78878"/>
</svg>
