<svg width="57" height="30" viewBox="0 0 57 30" fill="none" xmlns="http://www.w3.org/2000/svg">
<path d="M47.147 28.7266C47.0411 28.6982 46.9352 28.6699 46.8293 28.6415L4.25193 3.27167C3.7508 3.02389 3.60335 2.30334 3.85113 1.8022C4.09892 1.30106 4.81947 1.15362 5.3206 1.4014L47.898 26.7712C48.3991 27.019 48.5465 27.7396 48.2987 28.2407C48.0793 28.6359 47.5706 28.8401 47.147 28.7266Z" fill="#382519"/>
<path d="M9.61815 28.7266C9.19454 28.8401 8.6858 28.6359 8.46639 28.2407C8.2186 27.7395 8.39443 27.1249 8.86719 26.7712L51.4445 1.40139C51.9173 1.0477 52.5603 1.32943 52.914 1.80219C53.1618 2.30332 52.986 2.91797 52.5132 3.27166L9.93585 28.6415C9.82995 28.6699 9.72405 28.6982 9.61815 28.7266Z" fill="#382519"/>
<circle cx="28" cy="15" r="14" stroke="#382519" stroke-width="2"/>
</svg>
