<svg width="35" height="35" viewBox="0 0 35 35" fill="none" xmlns="http://www.w3.org/2000/svg">
<circle cx="17.5" cy="17.5" r="17.5" fill="#FDFAF1" fill-opacity="0.7"/>
<path d="M8.09082 14.6289C7.52481 11.4707 9.6166 8.73496 12.8773 8.47656C15.7484 8.25098 17.1717 11.7291 17.4588 12.3936C17.462 12.4047 17.4687 12.4145 17.478 12.4215C17.4872 12.4285 17.4985 12.4322 17.5101 12.4322C17.5216 12.4322 17.5329 12.4285 17.5422 12.4215C17.5514 12.4145 17.5581 12.4047 17.5613 12.3936C18.8943 8.73906 21.3225 8.5832 22.1756 8.49707C24.4725 8.25098 27.5527 10.027 26.9334 14.1654C26.0475 19.9076 17.4506 26.3922 17.4506 26.3922C17.4506 26.3922 9.21055 20.8018 8.09082 14.6289Z" stroke="#382519"/>
</svg>
