<svg width="20" height="20" viewBox="0 0 20 20" fill="none" xmlns="http://www.w3.org/2000/svg">
<path d="M15.8408 10H17.6002" stroke="black"/>
<path d="M2.3999 10H12.0905" stroke="black"/>
<path d="M8.29395 4.99023H17.6002" stroke="black"/>
<path d="M2.3999 4.99023H4.5499" stroke="black"/>
<path d="M10.9375 15.0098H17.6" stroke="black"/>
<path d="M2.3999 15.0098H7.1874" stroke="black"/>
<path d="M6.42187 6.76855C7.45741 6.76855 8.29687 5.92909 8.29687 4.89355C8.29687 3.85802 7.45741 3.01855 6.42187 3.01855C5.38634 3.01855 4.54688 3.85802 4.54688 4.89355C4.54688 5.92909 5.38634 6.76855 6.42187 6.76855Z" stroke="black"/>
<path d="M13.9658 11.875C15.0014 11.875 15.8408 11.0355 15.8408 10C15.8408 8.96447 15.0014 8.125 13.9658 8.125C12.9303 8.125 12.0908 8.96447 12.0908 10C12.0908 11.0355 12.9303 11.875 13.9658 11.875Z" stroke="black"/>
<path d="M9.0625 16.8848C10.098 16.8848 10.9375 16.0453 10.9375 15.0098C10.9375 13.9742 10.098 13.1348 9.0625 13.1348C8.02697 13.1348 7.1875 13.9742 7.1875 15.0098C7.1875 16.0453 8.02697 16.8848 9.0625 16.8848Z" stroke="black"/>
</svg>
