<svg width="36" height="35" viewBox="0 0 36 35" fill="none" xmlns="http://www.w3.org/2000/svg">
<path d="M5.28809 13.6719C4.5334 9.46093 7.32246 5.81328 11.6701 5.46875C15.4982 5.16796 17.3959 9.80546 17.7787 10.6914C17.783 10.7063 17.7919 10.7193 17.8043 10.7286C17.8166 10.7379 17.8316 10.743 17.8471 10.743C17.8625 10.743 17.8776 10.7379 17.8899 10.7286C17.9022 10.7193 17.9112 10.7063 17.9154 10.6914C19.6928 5.81875 22.9303 5.61093 24.0678 5.49609C27.1303 5.16796 31.2373 7.53593 30.4115 13.0539C29.2303 20.7102 17.7678 29.3562 17.7678 29.3562C17.7678 29.3562 6.78106 21.9023 5.28809 13.6719Z" stroke="#382519"/>
</svg>
