<svg width="22" height="23" viewBox="0 0 22 23" fill="none" xmlns="http://www.w3.org/2000/svg">
<path d="M15.2143 1H6.78571C3.59035 1 1 3.59035 1 6.78571V16.0769C1 19.2723 3.59035 21.8626 6.78571 21.8626H15.2143C18.4096 21.8626 21 19.2723 21 16.0769V6.78571C21 3.59035 18.4096 1 15.2143 1Z" stroke="#FDFAF1" stroke-linecap="round"/>
<path d="M11.0003 16.5275C13.8163 16.5275 16.0992 14.2446 16.0992 11.4286C16.0992 8.61251 13.8163 6.32965 11.0003 6.32965C8.18422 6.32965 5.90137 8.61251 5.90137 11.4286C5.90137 14.2446 8.18422 16.5275 11.0003 16.5275Z" stroke="#FDFAF1" stroke-linecap="round"/>
<path d="M17.1047 5.41753C17.5052 5.41753 17.8299 5.09281 17.8299 4.69225C17.8299 4.2917 17.5052 3.96698 17.1047 3.96698C16.7041 3.96698 16.3794 4.2917 16.3794 4.69225C16.3794 5.09281 16.7041 5.41753 17.1047 5.41753Z" stroke="#FDFAF1"/>
</svg>
