<svg width="47" height="30" viewBox="0 0 47 30" fill="none" xmlns="http://www.w3.org/2000/svg">
<path fill-rule="evenodd" clip-rule="evenodd" d="M19.4774 23.9556C20.235 23.839 20.9258 23.4552 21.4249 22.8734C21.924 22.2916 22.1984 21.5505 22.1984 20.7839C22.1984 20.0174 21.924 19.2762 21.4249 18.6945C20.9258 18.1127 20.235 17.7289 19.4774 17.6123C18.7198 17.7289 18.0289 18.1127 17.5298 18.6945C17.0307 19.2762 16.7563 20.0174 16.7563 20.7839C16.7563 21.5505 17.0307 22.2916 17.5298 22.8734C18.0289 23.4552 18.7198 23.839 19.4774 23.9556V23.9556Z" fill="#382519"/>
<path fill-rule="evenodd" clip-rule="evenodd" d="M28.2091 23.9556C28.9667 23.839 29.6575 23.4552 30.1566 22.8734C30.6557 22.2916 30.9301 21.5505 30.9301 20.7839C30.9301 20.0174 30.6557 19.2762 30.1566 18.6945C29.6575 18.1127 28.9667 17.7289 28.2091 17.6123C27.4515 17.7289 26.7606 18.1127 26.2615 18.6945C25.7624 19.2762 25.488 20.0174 25.488 20.7839C25.488 21.5505 25.7624 22.2916 26.2615 22.8734C26.7606 23.4552 27.4515 23.839 28.2091 23.9556V23.9556Z" fill="#382519"/>
<path fill-rule="evenodd" clip-rule="evenodd" d="M14.3284 11.5674H44.4776L44.6269 12.6122L46.6418 28.6569L46.791 30.0002H0V28.8062C0 24.6271 0.597015 20.3734 2.68657 17.1644C4.77612 13.9554 8.43284 11.5674 14.3284 11.5674ZM42.4627 13.8808H14.3284C9.32836 13.8808 6.26866 15.6719 4.55224 18.4331C2.83582 21.1942 2.38806 24.254 2.31343 27.6122H44.1791L42.4627 13.8808Z" fill="#382519"/>
<path fill-rule="evenodd" clip-rule="evenodd" d="M9.17898 2.31344C8.88209 2.31344 8.59737 2.1955 8.38744 1.98557C8.17751 1.77564 8.05957 1.49092 8.05957 1.19403C8.05898 0.889872 8.17448 0.596949 8.38251 0.375052C8.59054 0.153155 8.87541 0.0190123 9.17898 2.77305e-06H42.1641C42.4484 -0.000629875 42.7224 0.107009 42.9303 0.301058C43.1382 0.495106 43.2645 0.761015 43.2835 1.04478L46.6417 28.6567C46.6625 28.8096 46.6515 28.9652 46.6093 29.1137C46.5671 29.2622 46.4947 29.4003 46.3966 29.5194C46.2985 29.6386 46.1768 29.7361 46.0392 29.806C45.9016 29.8759 45.751 29.9165 45.5969 29.9254C45.4497 29.9463 45.2998 29.9378 45.156 29.9002C45.0121 29.8626 44.8772 29.7967 44.7591 29.7064C44.641 29.616 44.5421 29.5031 44.4681 29.3741C44.3941 29.2452 44.3466 29.1028 44.3282 28.9552L41.1939 2.31344H9.17898Z" fill="#382519"/>
</svg>
