<svg width="111" height="95" viewBox="0 0 111 95" fill="none" xmlns="http://www.w3.org/2000/svg">
<path d="M93.512 38.8312C93.5171 46.8109 91.0123 54.5901 86.3522 61.0677C81.6921 67.5454 75.1128 72.3933 67.5455 74.9254L66.7459 75.1919C64.9544 75.7154 63.0773 75.8806 61.222 75.678C59.3666 75.4755 57.5693 74.9092 55.9329 74.0116C53.7581 75.3118 51.2707 75.9962 48.7369 75.9915C47.7919 75.9819 46.8494 75.8927 45.9194 75.725H45.8813L44.0919 75.23L43.9015 75.1538C36.1895 72.717 29.455 67.8853 24.6761 61.3604C19.8971 54.8355 17.3223 46.9571 17.3258 38.8692C17.312 32.5946 18.8697 26.4164 21.8566 20.8983C20.9206 20.2843 20.1254 19.4788 19.5234 18.535C18.9215 17.5912 18.5265 16.5305 18.3644 15.4228C18.2024 14.3152 18.277 13.1858 18.5834 12.1091C18.8898 11.0324 19.4209 10.0329 20.1418 9.17649C20.8627 8.32009 21.757 7.62625 22.7656 7.14072C23.7743 6.6552 24.8744 6.38904 25.9935 6.35978C27.1125 6.33052 28.225 6.53883 29.2577 6.97098C30.2903 7.40313 31.2196 8.04929 31.9843 8.86685C38.691 3.63271 46.9561 0.792986 55.4635 0.799886C63.9709 0.806786 72.2315 3.65991 78.9297 8.90493C79.6642 8.12963 80.5501 7.51334 81.5325 7.0942C82.5148 6.67506 83.5728 6.462 84.6408 6.46819C86.3279 6.48399 87.9659 7.0382 89.316 8.05004C90.6661 9.06188 91.6578 10.4785 92.1465 12.0933C92.6352 13.7082 92.5954 15.4369 92.0329 17.0276C91.4704 18.6183 90.4146 19.9877 89.0193 20.9363C91.9702 26.4393 93.5136 32.5869 93.512 38.8312Z" fill="#C85448"/>
<path d="M48.7372 76.7529C47.7662 76.7604 46.7968 76.6711 45.8435 76.4864H45.6912L43.9017 75.9915L43.6352 75.8772C38.2528 74.1712 33.3076 71.311 29.1448 67.4961C24.9821 63.6813 21.7022 59.0039 19.5342 53.7904C17.3661 48.5768 16.3621 42.9529 16.5923 37.3113C16.8225 31.6696 18.2813 26.1462 20.8669 21.1267C19.8503 20.3151 19.0309 19.2837 18.4704 18.1098C17.9098 16.936 17.6227 15.6503 17.6306 14.3495C17.6406 12.0503 18.5585 9.84806 20.1843 8.22225C21.8101 6.59643 24.0123 5.67862 26.3115 5.66861C28.4186 5.6583 30.4542 6.43183 32.0226 7.83883C38.7754 2.74525 47.0052 -0.00685832 55.4636 1.28351e-05C63.922 0.00688399 72.1474 2.77236 78.8918 7.8769C80.4701 6.45671 82.5178 5.67019 84.641 5.66861C86.9367 5.67868 89.135 6.59771 90.7547 8.2246C92.3745 9.8515 93.2839 12.0538 93.2839 14.3495C93.293 15.6598 93.0028 16.9549 92.4353 18.136C91.8679 19.3172 91.0382 20.3531 90.0095 21.1648C92.5577 26.1386 94.0025 31.6038 94.245 37.1872C94.4876 42.7705 93.5223 48.3404 91.415 53.5165C89.3077 58.6926 86.108 63.3529 82.0346 67.1791C77.9612 71.0053 73.11 73.9073 67.8123 75.6869L66.9747 75.9915C65.6001 76.3853 64.1783 76.5902 62.7484 76.6006C60.3745 76.6023 58.0358 76.0274 55.9332 74.9254C53.7304 76.1404 51.2527 76.7697 48.7372 76.7529ZM46.0339 74.9254H46.072C46.951 75.0914 47.8427 75.1805 48.7372 75.1919C51.1408 75.1966 53.4992 74.5379 55.5524 73.2882L55.9332 73.0597L56.3139 73.2882C58.2789 74.3908 60.4952 74.9678 62.7484 74.9634C64.0236 74.9625 65.2923 74.7831 66.5178 74.4304L67.2792 74.1639C72.4279 72.4455 77.1392 69.6233 81.0838 65.8947C85.0283 62.1661 88.1109 57.621 90.1162 52.5771C92.1214 47.5331 93.0009 42.1121 92.6931 36.693C92.3853 31.2738 90.8977 25.9873 88.3342 21.2028L88.0296 20.5937L88.6007 20.2129C89.8799 19.3674 90.852 18.1315 91.3723 16.6891C91.8926 15.2466 91.9333 13.6748 91.4883 12.2074C91.0434 10.7399 90.1366 9.45537 88.9029 8.54478C87.6691 7.63418 86.1744 7.14622 84.641 7.15349C83.6775 7.14177 82.7222 7.33224 81.8369 7.71262C80.9515 8.09299 80.1558 8.65481 79.501 9.36179L79.0061 9.85676L78.435 9.43794C71.8774 4.28843 63.7826 1.48624 55.4448 1.47933C47.107 1.47243 39.0076 4.26122 32.4415 9.39987L31.9084 9.81868L31.4135 9.32372C30.7568 8.63207 29.9652 8.08259 29.0876 7.70929C28.2101 7.33598 27.2652 7.14681 26.3115 7.15349C24.7848 7.15666 23.2991 7.6479 22.0714 8.55545C20.8437 9.46299 19.9383 10.7393 19.4876 12.198C19.0368 13.6566 19.0642 15.2212 19.5658 16.6632C20.0674 18.1051 21.0169 19.3489 22.2757 20.2129L22.8468 20.5937L22.5422 21.2028C19.9602 26.0337 18.4724 31.3734 18.1841 36.8435C17.8959 42.3135 18.8143 47.78 20.8743 52.8555C22.9343 57.931 26.0855 62.4913 30.1044 66.2132C34.1234 69.935 38.9117 72.7274 44.1302 74.3923H44.3206L45.9958 74.8492L46.0339 74.9254Z" fill="#FDFAF1"/>
<path d="M55.4761 45.0372C63.1933 45.0372 69.4493 38.7812 69.4493 31.064C69.4493 23.3468 63.1933 17.0908 55.4761 17.0908C47.7589 17.0908 41.5029 23.3468 41.5029 31.064C41.5029 38.7812 47.7589 45.0372 55.4761 45.0372Z" fill="#FDFAF1"/>
<path d="M55.4759 45.7987C51.568 45.7987 47.8202 44.2463 45.0569 41.483C42.2936 38.7197 40.7412 34.9719 40.7412 31.064C40.7412 27.1562 42.2936 23.4083 45.0569 20.645C47.8202 17.8818 51.568 16.3294 55.4759 16.3294C63.3191 16.3294 70.2106 23.2208 70.2106 31.064C70.2005 34.9688 68.6449 38.7108 65.8838 41.4719C63.1227 44.233 59.3807 45.7887 55.4759 45.7987ZM55.4759 17.8904C52.8704 17.8904 50.3234 18.663 48.157 20.1106C45.9906 21.5581 44.3021 23.6155 43.305 26.0227C42.3079 28.4299 42.0471 31.0786 42.5554 33.6341C43.0637 36.1895 44.3183 38.5368 46.1607 40.3792C48.0031 42.2216 50.3504 43.4762 52.9058 43.9845C55.4613 44.4928 58.11 44.232 60.5172 43.2349C62.9244 42.2378 64.9818 40.5493 66.4294 38.3829C67.8769 36.2165 68.6495 33.6695 68.6495 31.064C68.6495 24.0584 62.4815 17.8904 55.4759 17.8904Z" fill="#FDFAF1"/>
<path d="M48.9652 62.0563C48.8009 62.0537 48.6414 62.0006 48.5083 61.904C48.3383 61.7817 48.223 61.5974 48.1874 61.3909C48.1518 61.1844 48.1987 60.9722 48.318 60.7999C49.4554 59.2622 50.8771 57.9568 52.5061 56.9544C54.8279 55.5202 57.5062 54.7682 60.2352 54.7842C60.4371 54.7842 60.6308 54.8644 60.7736 55.0072C60.9164 55.15 60.9966 55.3437 60.9966 55.5457C60.9966 55.7476 60.9164 55.9413 60.7736 56.0841C60.6308 56.2269 60.4371 56.3072 60.2352 56.3072C57.8034 56.3097 55.4192 56.9815 53.3438 58.2489C51.8803 59.1561 50.6014 60.3317 49.5744 61.7137C49.5101 61.8176 49.4205 61.9035 49.314 61.9635C49.2074 62.0234 49.0875 62.0553 48.9652 62.0563Z" fill="#FDFAF1"/>
<path d="M49.9556 67.6151C49.7622 67.6097 49.5756 67.5431 49.4225 67.4248C49.2753 67.281 49.1892 67.086 49.1821 66.8803C49.175 66.6747 49.2475 66.4742 49.3845 66.3206C50.3087 65.3261 51.3582 64.4559 52.5065 63.7316C54.8355 62.3141 57.5091 61.5634 60.2356 61.5614C60.4375 61.5614 60.6312 61.6416 60.774 61.7844C60.9168 61.9272 60.9971 62.1209 60.9971 62.3229C61.0022 62.426 60.9863 62.5291 60.9504 62.626C60.9144 62.7228 60.8592 62.8113 60.7879 62.8861C60.7167 62.9609 60.631 63.0204 60.536 63.061C60.4411 63.1017 60.3389 63.1225 60.2356 63.1224C57.8013 63.1068 55.4122 63.78 53.3442 65.0642C52.283 65.6772 51.3309 66.462 50.5267 67.3867C50.3722 67.5325 50.168 67.6142 49.9556 67.6151Z" fill="#FDFAF1"/>
<path d="M52.9252 71.9556C52.7928 71.9575 52.6625 71.923 52.5483 71.8558C52.4342 71.7887 52.3407 71.6915 52.278 71.5749C52.1741 71.4013 52.1399 71.1947 52.1823 70.9969C52.2247 70.799 52.3405 70.6246 52.5064 70.5088C54.8354 69.0913 57.509 68.3406 60.2355 68.3386C60.4408 68.3484 60.6346 68.4369 60.7764 68.5858C60.9182 68.7347 60.9972 68.9325 60.9969 69.1382C60.9969 69.3401 60.9167 69.5338 60.7739 69.6766C60.6311 69.8194 60.4374 69.8996 60.2355 69.8996C57.8036 69.9022 55.4195 70.574 53.344 71.8414C53.2162 71.914 53.0722 71.9533 52.9252 71.9556Z" fill="#FDFAF1"/>
<path d="M39.4852 16.6339C38.9298 16.6339 38.3972 16.8546 38.0045 17.2473C37.6117 17.64 37.3911 18.1726 37.3911 18.728C37.3911 19.2834 37.6117 19.816 38.0045 20.2088C38.3972 20.6015 38.9298 20.8221 39.4852 20.8221C40.0406 20.8221 40.5732 20.6015 40.9659 20.2088C41.3586 19.816 41.5793 19.2834 41.5793 18.728C41.5793 18.1726 41.3586 17.64 40.9659 17.2473C40.5732 16.8546 40.0406 16.6339 39.4852 16.6339ZM38.9521 19.4514C38.7323 19.459 38.5152 19.4008 38.3287 19.2841C38.1422 19.1675 37.9948 18.9978 37.9053 18.7969C37.8159 18.5959 37.7885 18.3728 37.8267 18.1562C37.8649 17.9395 37.967 17.7392 38.1197 17.581C38.2725 17.4227 38.4691 17.3137 38.6843 17.268C38.8994 17.2222 39.1234 17.2417 39.3273 17.324C39.5313 17.4064 39.7061 17.5478 39.8292 17.7301C39.9523 17.9124 40.0181 18.1273 40.0182 18.3473C40.0184 18.6336 39.9073 18.9089 39.7084 19.1149C39.5095 19.3209 39.2383 19.4415 38.9521 19.4514Z" fill="#FDFAF1"/>
<path d="M71.6956 16.6339C71.1403 16.6339 70.6076 16.8546 70.2149 17.2473C69.8222 17.64 69.6016 18.1726 69.6016 18.728C69.6016 19.2834 69.8222 19.816 70.2149 20.2088C70.6076 20.6015 71.1403 20.8221 71.6956 20.8221C72.251 20.8221 72.7837 20.6015 73.1764 20.2088C73.5691 19.816 73.7897 19.2834 73.7897 18.728C73.7897 18.1726 73.5691 17.64 73.1764 17.2473C72.7837 16.8546 72.251 16.6339 71.6956 16.6339ZM71.1245 19.4514C70.9061 19.4514 70.6927 19.3867 70.5111 19.2653C70.3295 19.144 70.188 18.9716 70.1044 18.7698C70.0209 18.5681 69.999 18.346 70.0416 18.1319C70.0842 17.9177 70.1894 17.7209 70.3438 17.5665C70.4982 17.4121 70.6949 17.3069 70.9091 17.2643C71.1233 17.2217 71.3453 17.2436 71.5471 17.3272C71.7488 17.4107 71.9213 17.5523 72.0426 17.7338C72.1639 17.9154 72.2287 18.1289 72.2287 18.3473C72.2287 18.6401 72.1123 18.921 71.9053 19.128C71.6982 19.3351 71.4174 19.4514 71.1245 19.4514Z" fill="#FDFAF1"/>
<path d="M58.3447 28.6997C59.9357 27.1087 59.9357 24.5293 58.3447 22.9383C56.7538 21.3473 54.1743 21.3473 52.5833 22.9383C50.9924 24.5293 50.9924 27.1087 52.5833 28.6997C54.1743 30.2907 56.7538 30.2907 58.3447 28.6997Z" fill="#C85448"/>
<path d="M55.4758 40.4683C55.3727 40.4735 55.2695 40.4576 55.1727 40.4217C55.0759 40.3857 54.9874 40.3305 54.9126 40.2592C54.8378 40.188 54.7783 40.1023 54.7377 40.0073C54.697 39.9124 54.6761 39.8101 54.6763 39.7069V25.8098C54.6761 25.7065 54.697 25.6043 54.7377 25.5093C54.7783 25.4144 54.8378 25.3287 54.9126 25.2574C54.9874 25.1862 55.0759 25.1309 55.1727 25.095C55.2695 25.059 55.3727 25.0432 55.4758 25.0483C55.6778 25.0483 55.8715 25.1286 56.0143 25.2714C56.1571 25.4142 56.2373 25.6079 56.2373 25.8098V39.7069C56.2373 39.9088 56.1571 40.1025 56.0143 40.2453C55.8715 40.3881 55.6778 40.4683 55.4758 40.4683Z" fill="#C85448"/>
<path d="M52.5442 41.1537C51.6646 41.1509 50.7908 41.0095 49.9552 40.7349C48.5084 40.2399 47.4804 39.4023 47.0615 38.3362C46.9847 38.144 46.9854 37.9294 47.0635 37.7377C47.1416 37.5459 47.291 37.392 47.4804 37.3082C47.6773 37.2336 47.8958 37.2397 48.0883 37.3253C48.2808 37.4108 48.4317 37.5689 48.5084 37.7651C48.7749 38.4123 49.4602 38.9454 50.4501 39.25C51.4401 39.5546 53.9149 39.7069 54.981 39.0596C55.0679 39.005 55.1649 38.9685 55.2663 38.9524C55.3676 38.9362 55.4712 38.9407 55.5708 38.9656C55.6704 38.9905 55.7639 39.0353 55.8457 39.0972C55.9276 39.1592 55.996 39.237 56.047 39.3261C56.1009 39.41 56.1368 39.5042 56.1526 39.6027C56.1683 39.7012 56.1635 39.8018 56.1385 39.8984C56.1134 39.9949 56.0687 40.0852 56.0071 40.1637C55.9455 40.2421 55.8684 40.3069 55.7805 40.3541C54.7956 40.9126 53.6759 41.1893 52.5442 41.1537Z" fill="#C85448"/>
<path d="M58.1413 41.1156C57.05 41.1575 55.9687 40.8937 55.0192 40.3541C54.8497 40.2512 54.727 40.0862 54.6772 39.8942C54.6274 39.7023 54.6545 39.4984 54.7527 39.3261C54.8037 39.237 54.8722 39.1592 54.954 39.0972C55.0358 39.0353 55.1294 38.9905 55.2289 38.9656C55.3285 38.9407 55.4321 38.9362 55.5335 38.9523C55.6348 38.9685 55.7319 39.005 55.8188 39.0596C56.7706 39.6307 58.2936 39.7449 59.7404 39.4023C61.1872 39.0596 61.9487 38.4504 62.4056 37.6509C62.4566 37.5618 62.5251 37.4839 62.6069 37.422C62.6887 37.36 62.7823 37.3152 62.8818 37.2903C62.9814 37.2654 63.085 37.2609 63.1864 37.2771C63.2877 37.2932 63.3848 37.3297 63.4717 37.3843C63.5608 37.4353 63.6386 37.5038 63.7006 37.5856C63.7625 37.6675 63.8073 37.761 63.8322 37.8606C63.8571 37.9601 63.8616 38.0637 63.8455 38.1651C63.8293 38.2664 63.7928 38.3635 63.7382 38.4504C63.0529 39.5926 61.7584 40.4683 60.1212 40.8872C59.4717 41.0362 58.8077 41.1128 58.1413 41.1156Z" fill="#C85448"/>
<path d="M55.4381 50.6722L55.0573 50.596C53.1428 49.463 50.9617 48.8586 48.737 48.8446C48.5351 48.8446 48.3414 48.7644 48.1986 48.6216C48.0558 48.4788 47.9756 48.2851 47.9756 48.0832C47.9704 47.98 47.9863 47.8769 48.0222 47.78C48.0582 47.6832 48.1134 47.5947 48.1847 47.5199C48.2559 47.4451 48.3416 47.3856 48.4366 47.345C48.5315 47.3044 48.6338 47.2835 48.737 47.2836C51.2388 47.301 53.6927 47.9703 55.8569 49.2254C56.0292 49.3354 56.1528 49.5071 56.2023 49.7054C56.2519 49.9036 56.2237 50.1134 56.1234 50.2915C56.0544 50.4111 55.9542 50.5097 55.8335 50.5768C55.7128 50.6439 55.5761 50.6768 55.4381 50.6722Z" fill="#FDFAF1"/>
<path d="M55.9712 74.8112C55.8361 74.8094 55.7043 74.7698 55.5905 74.6969C53.3988 73.478 51.5555 71.7186 50.2359 69.586C48.9164 67.4533 48.1645 65.0185 48.0518 62.5132V61.8279C48.0443 59.3095 48.6891 56.832 49.9235 54.6368C51.1578 52.4416 52.9397 50.6035 55.0955 49.3015C57.3216 47.8733 59.9133 47.1196 62.558 47.1313C62.76 47.1313 62.9537 47.2115 63.0965 47.3543C63.2393 47.4971 63.3195 47.6908 63.3195 47.8928C63.3195 48.0947 63.2393 48.2884 63.0965 48.4312C62.9537 48.574 62.76 48.6543 62.558 48.6543C60.1985 48.6611 57.8889 49.3342 55.8951 50.596C53.9748 51.7747 52.389 53.4262 51.2891 55.3926C50.1892 57.3591 49.6121 59.5748 49.6129 61.8279V62.4371C49.7109 64.682 50.3817 66.8646 51.5612 68.7772C52.7408 70.6898 54.39 72.2689 56.352 73.3644C56.528 73.4609 56.6588 73.6231 56.7159 73.8157C56.7729 74.0082 56.7516 74.2155 56.6566 74.3923C56.5894 74.5164 56.4907 74.6205 56.3703 74.6941C56.2499 74.7676 56.1123 74.808 55.9712 74.8112Z" fill="#FDFAF1"/>
<path d="M0.0401862 55.203C0.00821854 55.1166 -0.00492112 55.0243 0.00164499 54.9324C0.00821111 54.8404 0.0343339 54.751 0.0782626 54.67C0.11693 54.5803 0.174298 54.5 0.246527 54.4343C0.318756 54.3687 0.404179 54.3192 0.497077 54.2892L9.33027 51.091C9.42304 51.0582 9.52155 51.0446 9.61975 51.0511C9.71795 51.0577 9.81378 51.0842 9.90138 51.1291C9.99101 51.1677 10.0713 51.2251 10.137 51.2973C10.2027 51.3696 10.2521 51.455 10.2821 51.5479L11.3482 54.67C11.5679 55.2126 11.6465 55.8021 11.5766 56.3833C11.5071 56.8993 11.296 57.3859 10.9666 57.7891C10.6373 58.1924 10.2027 58.4965 9.71101 58.6677C9.29734 58.8245 8.84567 58.851 8.41649 58.7439C7.98442 58.6349 7.58979 58.4113 7.27426 58.0966C7.32023 58.6762 7.20144 59.2569 6.9316 59.7719C6.60149 60.3053 6.08641 60.6984 5.48478 60.876C4.92812 61.0957 4.31959 61.1486 3.73337 61.0283C3.17512 60.9012 2.66188 60.6249 2.24848 60.2288C1.77863 59.7891 1.42538 59.2396 1.22049 58.6297L0.0401862 55.203ZM1.52508 55.4695L2.47693 58.1728C2.5928 58.5491 2.80243 58.8897 3.08611 59.1627C3.30714 59.4107 3.5999 59.5837 3.92375 59.6577C4.29102 59.7446 4.67602 59.718 5.02789 59.5815C5.36105 59.4655 5.65247 59.2535 5.86552 58.9723C6.06084 58.7075 6.16745 58.3876 6.17012 58.0586C6.18979 57.6717 6.13816 57.2845 6.01782 56.9163L5.02789 54.175L1.52508 55.4695ZM6.28434 53.7181L7.16004 56.1929C7.30575 56.6349 7.58514 57.0207 7.9596 57.2971C8.15232 57.4156 8.3714 57.4846 8.59728 57.4979C8.82316 57.5112 9.04882 57.4684 9.25412 57.3732C9.46418 57.3087 9.65622 57.1958 9.81489 57.0438C9.97355 56.8917 10.0944 56.7046 10.1679 56.4975C10.3139 56.0471 10.2867 55.5584 10.0917 55.1269L9.25412 52.6901L6.28434 53.7181Z" fill="#C85448"/>
<path d="M5.67502 68.3005C5.39832 67.8479 5.18079 67.3616 5.02776 66.8537C4.88083 66.3853 4.80385 65.8978 4.79932 65.4069C4.8024 64.9774 4.92074 64.5566 5.14198 64.1885L5.5608 63.922C5.62501 63.8719 5.70243 63.8416 5.78357 63.8349C5.86472 63.8281 5.94608 63.8451 6.01769 63.8839C6.17683 63.9618 6.29964 64.0982 6.36036 64.2646C6.40331 64.4293 6.3899 64.6035 6.32228 64.7596C6.16636 65.1857 6.12694 65.6457 6.20806 66.0922C6.25902 66.6357 6.44201 67.1585 6.7411 67.6152C6.94916 68.0107 7.24955 68.3503 7.6168 68.6051C7.93927 68.8381 8.32342 68.9705 8.72095 68.9858C9.10713 69.0067 9.49098 68.9141 9.8251 68.7193C10.0435 68.5876 10.2312 68.4108 10.3756 68.2007C10.5201 67.9906 10.618 67.752 10.6627 67.5009C10.7624 66.9608 10.6536 66.403 10.3581 65.9399L9.90125 65.1403C9.85225 65.0762 9.8197 65.001 9.80643 64.9214C9.79316 64.8417 9.79957 64.76 9.8251 64.6835C9.84691 64.6024 9.88523 64.5268 9.93764 64.4613C9.99005 64.3958 10.0554 64.3418 10.1297 64.3027C10.1929 64.248 10.2681 64.2089 10.3493 64.1886C10.4304 64.1683 10.5151 64.1674 10.5967 64.186C10.6782 64.2045 10.7543 64.2419 10.8186 64.2953C10.883 64.3487 10.934 64.4164 10.9673 64.4931L11.3481 65.1023C11.4517 65.3017 11.5973 65.4764 11.7747 65.6144C11.9521 65.7524 12.1572 65.8504 12.3761 65.9018C12.6015 65.9636 12.8374 65.9776 13.0686 65.9427C13.2998 65.9079 13.5211 65.825 13.7184 65.6995C13.9156 65.574 14.0844 65.4086 14.2139 65.2139C14.3433 65.0193 14.4306 64.7997 14.4701 64.5692C14.4706 64.0331 14.3258 63.5068 14.0513 63.0463C13.821 62.6774 13.5241 62.3546 13.1756 62.0944C12.8275 61.8373 12.4227 61.6676 11.9953 61.5995C11.783 61.5707 11.577 61.5064 11.3861 61.4091C11.3167 61.3481 11.2632 61.2712 11.23 61.185C11.1969 61.0988 11.1851 61.0059 11.1958 60.9141C11.2093 60.7455 11.276 60.5856 11.3861 60.4572C11.5166 60.3558 11.6778 60.302 11.843 60.3049C12.4767 60.349 13.0905 60.5449 13.6325 60.876C14.2536 61.2433 14.766 61.7688 15.1174 62.399C15.4488 62.93 15.6569 63.5284 15.7266 64.1504C15.7715 64.6814 15.6933 65.2156 15.4981 65.7115C15.301 66.168 14.9688 66.5533 14.5463 66.8156C14.2177 67.0312 13.835 67.1499 13.4421 67.1583C13.0799 67.1851 12.7162 67.1332 12.3761 67.006C12.0586 66.9088 11.7617 66.7539 11.5004 66.5491C11.2749 66.4097 11.0908 66.2125 10.9673 65.978L11.3481 65.7115C11.4842 65.9901 11.5865 66.2841 11.6527 66.5872C11.7641 66.9573 11.8155 67.3429 11.805 67.7294C11.7674 68.1533 11.6512 68.5664 11.4623 68.9478C11.23 69.3759 10.8709 69.7217 10.4343 69.9377C9.94025 70.2649 9.34892 70.4127 8.75902 70.3565C8.14815 70.3174 7.55783 70.1207 7.04569 69.7854C6.46918 69.416 5.99721 68.9047 5.67502 68.3005Z" fill="#C85448"/>
<path d="M10.3202 74.9635C10.2354 74.8736 10.1764 74.7624 10.1496 74.6418C10.1228 74.5211 10.1291 74.3955 10.1679 74.2781C10.2169 74.1529 10.2999 74.0438 10.4075 73.963C10.5151 73.8823 10.6431 73.8332 10.7771 73.8212L15.0033 73.0217L15.6506 74.3543L11.0055 75.1919C10.8815 75.2301 10.7488 75.2301 10.6248 75.1919C10.5063 75.1414 10.4018 75.063 10.3202 74.9635ZM14.4703 79.5704C14.4054 79.506 14.3549 79.4287 14.3221 79.3433C14.2892 79.258 14.2749 79.1667 14.2799 79.0755C14.2767 78.9753 14.2955 78.8757 14.335 78.7836C14.3744 78.6915 14.4336 78.6092 14.5083 78.5424L17.0593 76.2199L15.3079 74.2781L15.4221 74.1639C14.9921 73.692 14.6676 73.1339 14.4703 72.5267C14.3176 71.9787 14.3176 71.3995 14.4703 70.8515C14.612 70.3037 14.9175 69.8122 15.346 69.4427C15.7766 69.014 16.3193 68.7153 16.9118 68.5806C17.5044 68.4459 18.1228 68.4808 18.6965 68.6812C19.3 68.9149 19.8362 69.2942 20.2575 69.7854L22.5039 72.2602C22.5698 72.3317 22.6207 72.4157 22.6534 72.5073C22.6861 72.5989 22.7 72.6962 22.6943 72.7932C22.6921 72.887 22.6707 72.9793 22.6314 73.0644C22.5921 73.1496 22.5357 73.2257 22.4658 73.2882L15.4983 79.6466C15.3452 79.7649 15.1586 79.8315 14.9652 79.837C14.8674 79.8356 14.7713 79.8106 14.6852 79.7642C14.599 79.7178 14.5253 79.6513 14.4703 79.5704ZM16.2597 73.4024L18.0112 75.3823L21.019 72.641L19.2676 70.6611C19.0261 70.3678 18.7106 70.1443 18.3538 70.0138C18.0333 69.8629 17.6717 69.8228 17.3258 69.8996C16.9332 69.9815 16.5747 70.1806 16.2978 70.4707C15.9936 70.7019 15.7677 71.0208 15.6506 71.3845C15.5687 71.7242 15.5818 72.0798 15.6886 72.4125C15.8113 72.7772 16.0055 73.1137 16.2597 73.4024Z" fill="#C85448"/>
<path d="M20.8666 85.0531C20.7886 85.0041 20.7237 84.9369 20.6773 84.8574C20.6309 84.7778 20.6044 84.6882 20.6001 84.5962C20.5792 84.5044 20.5786 84.4091 20.5984 84.3171C20.6181 84.225 20.6577 84.1384 20.7143 84.0632L26.7681 75.8772L27.9103 76.7529L21.8946 84.9008C21.7764 85.0638 21.5984 85.1733 21.3997 85.2054C21.3051 85.2185 21.2088 85.2118 21.117 85.1856C21.0253 85.1593 20.94 85.1142 20.8666 85.0531ZM23.5699 75.1538C23.499 75.1045 23.4388 75.0415 23.3926 74.9686C23.3465 74.8956 23.3154 74.8142 23.3012 74.729C23.287 74.6439 23.29 74.5568 23.31 74.4728C23.33 74.3888 23.3666 74.3097 23.4176 74.2401C23.5267 74.0852 23.6896 73.9766 23.8745 73.9355C24.0514 73.9327 24.2247 73.986 24.3694 74.0878L30.309 78.5424C30.4471 78.6601 30.5411 78.8212 30.5755 78.9993C30.5917 79.0873 30.5896 79.1776 30.5692 79.2647C30.5487 79.3518 30.5105 79.4337 30.4568 79.5052C30.4032 79.5768 30.3352 79.6364 30.2574 79.6804C30.1795 79.7244 30.0934 79.7518 30.0044 79.7608C29.9185 79.7785 29.8299 79.7775 29.7444 79.7577C29.659 79.738 29.5789 79.7001 29.5094 79.6466L23.5699 75.1538Z" fill="#C85448"/>
<path d="M28.1389 89.3174C27.9677 89.2442 27.8313 89.1078 27.7582 88.9367C27.7172 88.8456 27.6993 88.7459 27.7059 88.6464C27.7126 88.5468 27.7436 88.4504 27.7962 88.3656L31.8702 79.7989C31.8963 79.7125 31.9456 79.6349 32.0128 79.5745C32.0799 79.5141 32.1622 79.4732 32.2509 79.4562C32.4282 79.4131 32.6146 79.4264 32.7839 79.4943C32.9564 79.5795 33.1015 79.7114 33.2028 79.875C33.2347 79.9615 33.2479 80.0537 33.2413 80.1457C33.2347 80.2376 33.2086 80.3271 33.1647 80.4081L31.6417 83.6063L34.3069 84.7866C34.876 85.0597 35.3818 85.4488 35.7918 85.9288C36.1469 86.3798 36.3709 86.9199 36.4391 87.4899C36.5063 88.0784 36.4004 88.6739 36.1345 89.2032C35.88 89.7736 35.4712 90.2615 34.9542 90.6119C34.4615 90.958 33.8803 91.1561 33.2789 91.183C32.6389 91.2144 32.0004 91.0971 31.4133 90.8404L28.1389 89.3174ZM29.3573 88.4036L31.9844 89.622C32.3402 89.7958 32.7306 89.8869 33.1266 89.8885C33.4817 89.8671 33.8242 89.7486 34.1165 89.5459C34.4548 89.3229 34.7198 89.005 34.878 88.6321C35.055 88.2786 35.1339 87.8842 35.1065 87.4899C35.0637 87.1496 34.9175 86.8306 34.6876 86.5761C34.4221 86.2926 34.097 86.0716 33.7358 85.9288L31.1087 84.7104L29.3573 88.4036Z" fill="#C85448"/>
<path d="M43.5971 94.1909C43.4083 94.1562 43.2351 94.063 43.1022 93.9244C43.0411 93.851 42.996 93.7657 42.9697 93.6739C42.9435 93.5821 42.9367 93.4859 42.9499 93.3913L44.2825 84.0632C44.2839 83.9653 44.3088 83.8693 44.3552 83.7831C44.4016 83.6969 44.4681 83.6232 44.549 83.5682C44.7129 83.4463 44.9173 83.3919 45.1201 83.4159C45.2083 83.4186 45.2948 83.4405 45.3737 83.4799C45.4525 83.5194 45.5219 83.5755 45.577 83.6443C45.6337 83.7195 45.6732 83.8062 45.693 83.8983C45.7127 83.9903 45.7121 84.0856 45.6912 84.1774L44.6251 92.0206L52.4303 84.4058C52.503 84.3302 52.5929 84.2734 52.6924 84.2402C52.7919 84.207 52.898 84.1986 53.0014 84.2155C53.0952 84.2177 53.1875 84.2391 53.2726 84.2783C53.3578 84.3176 53.4339 84.374 53.4964 84.4439C53.5531 84.5191 53.5926 84.6057 53.6124 84.6978C53.6321 84.7899 53.6315 84.8851 53.6106 84.9769L52.3161 94.3432C52.307 94.4421 52.2776 94.538 52.2297 94.625C52.1819 94.712 52.1167 94.7883 52.0381 94.849C51.9595 94.9097 51.8693 94.9536 51.773 94.978C51.6767 95.0023 51.5765 95.0065 51.4785 94.9904C51.298 94.9624 51.1348 94.8672 51.0216 94.7239C50.9605 94.6506 50.9154 94.5653 50.8891 94.4735C50.8629 94.3817 50.8562 94.2854 50.8693 94.1909L51.9734 86.3857L44.2063 94.0005L43.9017 94.1528L43.5971 94.1909Z" fill="#C85448"/>
<path d="M66.0226 94.3432C65.2433 94.4174 64.4569 94.353 63.7001 94.1528C62.9966 93.9471 62.338 93.6113 61.7583 93.1629C61.1688 92.711 60.6658 92.1564 60.2734 91.5257C59.8838 90.8537 59.6133 90.1195 59.4738 89.3555C59.3287 88.6148 59.3158 87.8543 59.4358 87.1091C59.5755 86.452 59.8475 85.8301 60.2353 85.2815C60.6497 84.7408 61.1673 84.2878 61.7583 83.9489C62.4344 83.6047 63.172 83.3976 63.9285 83.3397C64.6952 83.2651 65.4692 83.3296 66.213 83.5301C66.9312 83.7278 67.6037 84.0641 68.1928 84.52C68.779 84.9489 69.2713 85.4931 69.6396 86.1192C70.0574 86.7812 70.3419 87.5184 70.4773 88.2894C70.6301 89.0432 70.6301 89.82 70.4773 90.5738C70.3375 91.231 70.0655 91.8528 69.6777 92.4014C69.2732 92.9513 68.7535 93.4061 68.1547 93.734C67.4876 94.0666 66.7648 94.2731 66.0226 94.3432ZM65.7561 93.0486C66.2908 93.0039 66.8105 92.8489 67.2823 92.5934C67.7541 92.3378 68.1678 91.9872 68.4974 91.5638C68.7998 91.1296 69.0073 90.6366 69.1066 90.1169C69.1885 89.5604 69.1756 88.994 69.0685 88.4417C68.9699 87.8626 68.7633 87.3072 68.4593 86.8045C68.1754 86.3186 67.8006 85.892 67.3552 85.548C66.9206 85.1906 66.4142 84.9309 65.8703 84.7866C65.3155 84.6199 64.7325 84.5681 64.157 84.6343C63.6116 84.6821 63.081 84.8374 62.5959 85.0912C62.1326 85.3291 61.739 85.6834 61.4537 86.1192C61.1522 86.5398 60.9445 87.0201 60.8445 87.5279C60.7307 88.0933 60.7307 88.6758 60.8445 89.2412C60.9608 89.8034 61.1664 90.3433 61.4537 90.8403C61.7511 91.328 62.1388 91.7544 62.5959 92.0968C63.0197 92.4576 63.5117 92.7295 64.0427 92.8963C64.601 93.0444 65.1805 93.096 65.7561 93.0486Z" fill="#C85448"/>
<path d="M76.0743 92.2491C75.9841 92.2879 75.887 92.3079 75.7888 92.3079C75.6906 92.3079 75.5934 92.2879 75.5032 92.2491C75.3192 92.1624 75.1711 92.0143 75.0844 91.8303L71.277 83.2256C71.2331 83.1445 71.2069 83.0551 71.2004 82.9631C71.1938 82.8712 71.2069 82.779 71.2389 82.6925C71.2776 82.6029 71.335 82.5226 71.4072 82.4569C71.4794 82.3912 71.5648 82.3418 71.6577 82.3118L77.1023 80.0654C77.1795 80.0283 77.2641 80.009 77.3498 80.009C77.4355 80.009 77.5201 80.0283 77.5973 80.0654C77.6888 80.0894 77.7724 80.1373 77.8393 80.2042C77.9062 80.2711 77.9541 80.3546 77.978 80.4462C78.0152 80.5234 78.0344 80.608 78.0344 80.6936C78.0344 80.7793 78.0152 80.8639 77.978 80.9411C77.9551 81.0228 77.9115 81.0972 77.8515 81.1573C77.7915 81.2173 77.7171 81.2608 77.6354 81.2838L72.838 83.2636L74.1325 86.1192L77.0643 84.9008C77.6513 84.6441 78.2899 84.5268 78.9299 84.5582C79.501 84.5896 80.0532 84.7737 80.529 85.0912C81.02 85.4005 81.4052 85.852 81.6331 86.3857C81.882 86.9202 81.9744 87.5142 81.8997 88.099C81.8245 88.674 81.5867 89.2156 81.2143 89.6601C80.791 90.149 80.2553 90.5279 79.6533 90.7642L76.0743 92.2491ZM76.1886 90.7262L79.1203 89.5459C79.4762 89.3934 79.7994 89.1736 80.0721 88.8986C80.2897 88.6457 80.446 88.346 80.529 88.0229C80.5623 87.6513 80.4992 87.2773 80.3458 86.9372C80.1924 86.597 79.9539 86.3022 79.6533 86.0811C79.371 85.8963 79.0386 85.8032 78.7014 85.8146C78.3104 85.8242 77.9239 85.9015 77.5592 86.043L74.6275 87.2614L76.1886 90.7262Z" fill="#C85448"/>
<path d="M87.23 87.1472C87.1614 87.2157 87.0765 87.2657 86.9832 87.2923C86.8899 87.319 86.7914 87.3214 86.697 87.2995C86.5165 87.2715 86.3533 87.1763 86.2401 87.033L80.567 79.4943C80.4985 79.4257 80.4485 79.3407 80.4219 79.2475C80.3952 79.1542 80.3928 79.0557 80.4147 78.9612C80.4494 78.7723 80.5426 78.5992 80.6813 78.4663C80.8416 78.3677 81.026 78.315 81.2143 78.314C81.4103 78.3532 81.5859 78.4612 81.7093 78.6186L84.1079 81.8168L89.2479 77.8952L86.8493 74.6969C86.7807 74.6283 86.7308 74.5434 86.7041 74.4501C86.6775 74.3569 86.675 74.2584 86.697 74.1639C86.7316 73.975 86.8248 73.8018 86.9635 73.6689C87.1221 73.5664 87.3077 73.5134 87.4965 73.5167C87.6883 73.5664 87.8607 73.6725 87.9915 73.8212L93.6265 81.3599C93.695 81.4285 93.745 81.5135 93.7716 81.6067C93.7983 81.7 93.8007 81.7985 93.7787 81.893C93.7745 81.985 93.748 82.0746 93.7016 82.1541C93.6552 82.2337 93.5902 82.3008 93.5122 82.3498C93.4436 82.4184 93.3587 82.4684 93.2654 82.495C93.1722 82.5217 93.0737 82.5241 92.9792 82.5021C92.7987 82.4742 92.6355 82.3789 92.5223 82.2356L90.0094 78.9232L84.8694 82.8448L87.3823 86.1573C87.4895 86.3138 87.5429 86.5008 87.5346 86.6903C87.5231 86.785 87.4896 86.8756 87.4367 86.955C87.3838 87.0344 87.313 87.1002 87.23 87.1472Z" fill="#C85448"/>
<path d="M101.546 73.6309C101.489 73.7072 101.414 73.768 101.327 73.8079C101.241 73.8478 101.146 73.8655 101.051 73.8593C100.962 73.8718 100.872 73.8647 100.786 73.8384C100.701 73.812 100.622 73.7672 100.556 73.707L97.8907 71.4606L96.2155 73.4786L96.1012 73.4024C95.7008 73.8923 95.1926 74.2832 94.6163 74.5446C94.1046 74.7795 93.5389 74.8716 92.9792 74.8112C92.4158 74.7352 91.8867 74.4971 91.4562 74.1258C90.9784 73.7405 90.6156 73.2314 90.4075 72.6539C90.1994 72.0765 90.1538 71.453 90.2759 70.8515C90.4049 70.2298 90.6936 69.6524 91.1135 69.1762L93.2838 66.5871C93.3328 66.5092 93.3999 66.4442 93.4795 66.3978C93.559 66.3514 93.6486 66.3249 93.7406 66.3206C93.8377 66.3149 93.935 66.3288 94.0266 66.3615C94.1181 66.3942 94.2022 66.4451 94.2737 66.511L101.47 72.6029C101.545 72.6634 101.607 72.7384 101.653 72.8234C101.699 72.9084 101.727 73.0017 101.736 73.0978C101.744 73.2934 101.675 73.4842 101.546 73.6309ZM95.2255 72.6409L96.9389 70.623L93.8168 67.9959L92.1415 70.0138C91.8907 70.3133 91.7087 70.6642 91.6085 71.0418C91.5076 71.3793 91.521 71.7407 91.6466 72.0698C91.7752 72.4588 92.0131 72.8025 92.3319 73.0597C92.6115 73.3035 92.955 73.462 93.3218 73.5166C93.6719 73.5789 94.0328 73.5254 94.3498 73.3643C94.6924 73.1921 94.9917 72.9448 95.2255 72.6409ZM97.5861 78.3521C97.5124 78.4608 97.4074 78.5445 97.285 78.5921C97.1626 78.6397 97.0286 78.6489 96.9008 78.6186C96.7765 78.5775 96.6635 78.508 96.5709 78.4154C96.4784 78.3228 96.4088 78.2099 96.3678 78.0855L95.0352 73.9355L96.2535 73.1359L97.7384 77.6667C97.7766 77.7908 97.7766 77.9234 97.7384 78.0475C97.7288 78.1648 97.6742 78.2739 97.5861 78.3521Z" fill="#C85448"/>
<path d="M95.8728 65.2545C95.7848 65.4057 95.6517 65.5256 95.4921 65.5972C95.3108 65.6285 95.1243 65.6018 94.9591 65.5211C94.8067 65.4267 94.6973 65.2763 94.6545 65.1023C94.6232 65.0222 94.6103 64.9361 94.6169 64.8504C94.6235 64.7647 94.6494 64.6816 94.6925 64.6073L98.3096 58.0585C98.3442 57.9811 98.3969 57.9131 98.4631 57.8602C98.5293 57.8072 98.6072 57.7708 98.6903 57.754C98.7721 57.7215 98.8611 57.7114 98.9481 57.7248C99.0351 57.7382 99.117 57.7745 99.1853 57.8301C99.2681 57.8625 99.3422 57.9138 99.4017 57.9799C99.4612 58.046 99.5044 58.1251 99.5279 58.2108C99.5537 58.2937 99.5602 58.3814 99.547 58.4671C99.5338 58.5529 99.5013 58.6345 99.4518 58.7058L95.8728 65.2545ZM106.001 66.6252C105.954 66.7118 105.888 66.7873 105.81 66.8464C105.731 66.9055 105.64 66.947 105.544 66.9679C105.457 66.9998 105.365 67.013 105.273 67.0064C105.181 66.9999 105.092 66.9737 105.011 66.9298L96.1394 61.9802L96.8628 60.6857L105.696 65.6353C105.783 65.6823 105.858 65.7475 105.917 65.8263C105.976 65.9052 106.018 65.9959 106.039 66.0922C106.071 66.1786 106.084 66.2709 106.077 66.3628C106.071 66.4547 106.044 66.5442 106.001 66.6252Z" fill="#C85448"/>
<path d="M109.503 59.1627C109.473 59.2556 109.424 59.341 109.358 59.4133C109.293 59.4855 109.212 59.5429 109.123 59.5815C109.045 59.6342 108.955 59.6655 108.861 59.6722C108.768 59.6789 108.674 59.6607 108.59 59.6196L99.5661 56.6498C99.4774 56.6329 99.3951 56.592 99.3279 56.5316C99.2608 56.4712 99.2115 56.3936 99.1854 56.3072C99.1475 56.2234 99.1279 56.1326 99.1279 56.0406C99.1279 55.9487 99.1475 55.8579 99.1854 55.7741C99.1995 55.6803 99.2342 55.5907 99.2868 55.5118C99.3394 55.4328 99.4088 55.3664 99.4899 55.3172C99.571 55.2733 99.6604 55.2472 99.7524 55.2406C99.8443 55.234 99.9365 55.2472 100.023 55.2792L103.374 56.3833L104.249 53.642C104.432 53.0285 104.758 52.4673 105.201 52.0048C105.616 51.5897 106.139 51.2986 106.711 51.1641C107.283 51.0295 107.88 51.057 108.437 51.2433C109.015 51.4495 109.537 51.7886 109.96 52.2332C110.377 52.6721 110.644 53.2321 110.722 53.8323C110.833 54.4671 110.794 55.1192 110.608 55.736L109.503 59.1627ZM108.437 58.0586L109.313 55.3172C109.461 54.9556 109.501 54.5588 109.427 54.175C109.392 53.8213 109.246 53.488 109.008 53.2232C108.749 52.9151 108.405 52.69 108.019 52.5759C107.64 52.4397 107.231 52.4133 106.838 52.4997C106.507 52.5789 106.212 52.7665 106.001 53.0328C105.75 53.3243 105.557 53.66 105.43 54.0227L104.554 56.764L108.437 58.0586Z" fill="#C85448"/>
<path d="M40.0179 18.3473C40.0177 18.5673 39.9519 18.7822 39.8288 18.9645C39.7057 19.1468 39.531 19.2882 39.327 19.3705C39.123 19.4528 38.8991 19.4724 38.6839 19.4266C38.4688 19.3808 38.2722 19.2718 38.1194 19.1136C37.9666 18.9553 37.8646 18.755 37.8264 18.5384C37.7881 18.3218 37.8155 18.0987 37.905 17.8977C37.9944 17.6967 38.1418 17.527 38.3283 17.4104C38.5148 17.2938 38.7319 17.2355 38.9518 17.2431C39.238 17.253 39.5091 17.3737 39.708 17.5797C39.9069 17.7857 40.018 18.0609 40.0179 18.3473Z" fill="#C85448"/>
<path d="M72.2288 18.3473C72.2288 18.5657 72.164 18.7792 72.0427 18.9607C71.9214 19.1423 71.749 19.2838 71.5472 19.3674C71.3454 19.451 71.1234 19.4728 70.9092 19.4302C70.6951 19.3876 70.4983 19.2825 70.3439 19.128C70.1895 18.9736 70.0843 18.7769 70.0417 18.5627C69.9991 18.3485 70.021 18.1265 70.1046 17.9248C70.1881 17.723 70.3296 17.5506 70.5112 17.4292C70.6928 17.3079 70.9063 17.2431 71.1247 17.2431C71.4175 17.2431 71.6983 17.3595 71.9054 17.5665C72.1125 17.7736 72.2288 18.0545 72.2288 18.3473Z" fill="#C85448"/>
</svg>
