<svg width="36" height="35" viewBox="0 0 36 35" fill="none" xmlns="http://www.w3.org/2000/svg">
<rect x="0.5" width="35" height="35" rx="17.5" fill="#D78878"/>
<path d="M18.8597 23.625C12.2827 23.625 8.53131 19.0267 8.375 11.375H11.6695C11.7777 16.9911 14.2065 19.37 16.1303 19.8605V11.375H19.2324V16.2186C21.1322 16.0101 23.1281 13.8029 23.8015 11.375H26.9036C26.6498 12.6342 26.1441 13.8264 25.4179 14.8772C24.6917 15.9279 23.7608 16.8146 22.6832 17.4816C23.886 18.0911 24.9484 18.9538 25.8002 20.0128C26.652 21.0717 27.274 22.3029 27.625 23.625H24.2103C23.8952 22.4767 23.2547 21.4487 22.3692 20.67C21.4837 19.8912 20.3925 19.3964 19.2324 19.2474V23.625H18.8597Z" fill="white"/>
</svg>
