<svg width="20" height="13" viewBox="0 0 20 13" fill="none" xmlns="http://www.w3.org/2000/svg">
<path d="M8.55746 8.90605V0.5H10.7805V5.08365V5.64214L11.3355 5.58061C12.4866 5.45301 13.6015 4.72844 14.4994 3.75424C15.3222 2.86161 16.0032 1.71736 16.3994 0.5H18.6208C18.3442 1.5352 17.8957 2.51434 17.2942 3.39345C16.5782 4.4401 15.661 5.32221 14.6006 5.98534L13.8533 6.45269L14.6379 6.85434C15.8234 7.46124 16.8717 8.32085 17.713 9.37735C18.4196 10.2647 18.9665 11.274 19.3293 12.3571H16.8235C16.4424 11.2082 15.7702 10.1802 14.8715 9.38186C13.8775 8.4988 12.6509 7.93616 11.3448 7.7667L10.7805 7.69349V8.26255V12.3567C7.54634 12.3305 5.05013 11.1776 3.32856 9.11936C1.65205 7.11497 0.667795 4.20065 0.515507 0.5H2.93805C3.18074 6.18241 5.69844 8.81477 7.93275 9.39025L8.55746 9.55115V8.90605Z" stroke="#FDFAF1"/>
</svg>
