<svg width="41" height="30" viewBox="0 0 41 30" fill="none" xmlns="http://www.w3.org/2000/svg">
<path fill-rule="evenodd" clip-rule="evenodd" d="M38.7335 0.825177C38.798 0.561845 38.959 0.332298 39.1846 0.181902C39.4102 0.0315065 39.684 -0.0288066 39.9519 0.0128827C40.0939 0.0359111 40.2293 0.0888424 40.3493 0.168155C40.4692 0.247467 40.571 0.351352 40.6478 0.472946C40.7246 0.59454 40.7747 0.731067 40.7947 0.873475C40.8148 1.01588 40.8044 1.16093 40.7642 1.29901L34.8074 29.1875C34.7599 29.4203 34.6323 29.6291 34.4468 29.7775C34.2613 29.9259 34.0296 30.0046 33.7921 29.9998H6.9866C6.73921 30.002 6.49951 29.9138 6.31255 29.7518C6.12559 29.5897 6.00422 29.365 5.97124 29.1198L0.0144754 1.29901C-0.0297958 1.02251 0.0282733 0.739347 0.177804 0.50259C0.327335 0.265833 0.558063 0.0917209 0.82676 0.0128827C1.09467 -0.0288066 1.36847 0.0315065 1.59406 0.181902C1.81966 0.332298 1.98063 0.561845 2.04519 0.825177L7.79889 27.9014H32.9798L38.7335 0.825177Z" fill="#382519"/>
<path fill-rule="evenodd" clip-rule="evenodd" d="M2.24805 7.32331C2.51881 7.32331 3.12802 6.6464 3.73724 5.96949C4.34645 5.29259 5.56488 3.87109 6.78331 3.87109C8.00174 3.87109 8.88172 4.95414 9.82939 5.96949C10.7771 6.98485 11.0478 7.32331 11.3186 7.32331C11.5893 7.32331 12.1986 6.6464 12.8078 5.96949C13.417 5.29259 14.6354 3.87109 15.8538 3.87109C17.0723 3.87109 17.9522 4.95414 18.8999 5.96949C19.8476 6.98485 20.1184 7.32331 20.3891 7.32331C20.6599 7.32331 21.3368 6.6464 21.8783 5.96949C22.4198 5.29259 23.7059 3.87109 24.9244 3.87109C26.1428 3.87109 27.0905 4.95414 27.9705 5.96949C28.8504 6.98485 29.1889 7.32331 29.4596 7.32331C29.7304 7.32331 30.4073 6.6464 31.0165 5.96949C31.6257 5.29259 32.8442 3.87109 34.0626 3.87109C35.281 3.87109 36.161 4.95414 37.041 5.96949C37.921 6.98485 38.2594 7.32331 38.5979 7.32331V9.42172C37.3794 9.42172 36.4318 8.40636 35.5518 7.391C34.6718 6.37564 34.3334 5.96949 34.0626 5.96949C33.7918 5.96949 33.1149 6.71409 32.5057 7.391C31.8965 8.06791 30.6781 9.42172 29.4596 9.42172C28.2412 9.42172 27.3612 8.40636 26.4813 7.391C25.6013 6.37564 25.2628 5.96949 24.9244 5.96949C24.5859 5.96949 24.0444 6.71409 23.4352 7.391C22.826 8.06791 21.6075 9.42172 20.3891 9.42172C19.1707 9.42172 18.2907 8.40636 17.343 7.391C16.3954 6.37564 16.1923 5.96949 15.8538 5.96949C15.5154 5.96949 14.9739 6.71409 14.3647 7.391C13.7554 8.06791 12.537 9.42172 11.3186 9.42172C10.1001 9.42172 9.22017 8.40636 8.2725 7.391C7.32483 6.37564 7.05407 5.96949 6.78331 5.96949C6.51255 5.96949 5.83565 6.71409 5.29412 7.391C4.7526 8.06791 3.46648 9.42172 2.24805 9.42172V7.32331Z" fill="#382519"/>
<path fill-rule="evenodd" clip-rule="evenodd" d="M19.7125 23.5696V21.2682H20.7956V19.5082H19.7125V13.8222H16.9372L13.3496 19.779V21.2682H17.6141V23.5696H19.7125ZM15.448 19.5082L16.7341 17.3421L17.6141 15.5145V19.5082H15.448ZM25.2631 13.6191C22.8263 13.6191 21.6755 15.8529 21.6755 18.6959C21.6755 21.5389 22.7586 23.7727 25.1955 23.7727C27.6323 23.7727 28.8507 21.6743 28.8507 18.6282C28.8507 15.5822 27.8354 13.6191 25.2631 13.6191V13.6191ZM25.2631 15.3791C26.1431 15.3791 26.617 16.5298 26.617 18.6959C26.617 20.862 26.1431 22.0128 25.2631 22.0128C24.3832 22.0128 23.9093 20.9297 23.9093 18.6959C23.9093 16.4621 24.4509 15.3791 25.2631 15.3791V15.3791Z" fill="#382519"/>
<path fill-rule="evenodd" clip-rule="evenodd" d="M29.7986 11.2501C30.0386 11.2479 30.2765 11.2948 30.4976 11.3879C30.7188 11.481 30.9186 11.6184 31.0847 11.7916V11.7916C31.249 11.9611 31.3761 12.163 31.4577 12.3845C31.5393 12.606 31.5736 12.8421 31.5586 13.0777C31.5696 13.3129 31.5334 13.5479 31.452 13.7688C31.3706 13.9897 31.2457 14.1921 31.0847 14.3638V14.3638C30.9186 14.537 30.7188 14.6744 30.4976 14.7675C30.2765 14.8606 30.0386 14.9075 29.7986 14.9054C29.5694 14.9023 29.3433 14.8527 29.1338 14.7597C28.9244 14.6666 28.736 14.5319 28.5802 14.3638V14.3638C28.2367 14.0236 28.0419 13.5612 28.0386 13.0777C28.0365 12.8377 28.0834 12.5999 28.1765 12.3787C28.2696 12.1575 28.407 11.9577 28.5802 11.7916V11.7916C28.736 11.6235 28.9244 11.4889 29.1338 11.3958C29.3433 11.3027 29.5694 11.2531 29.7986 11.2501V11.2501ZM30.6109 12.2654C30.3957 12.0495 30.1035 11.9277 29.7986 11.927C29.5157 11.9381 29.2484 12.0596 29.054 12.2654V12.2654C28.838 12.4807 28.7163 12.7728 28.7156 13.0777C28.7267 13.3606 28.8482 13.6279 29.054 13.8223V13.8223C29.2484 14.0281 29.5157 14.1496 29.7986 14.1608C30.1035 14.16 30.3957 14.0383 30.6109 13.8223V13.8223C30.7036 13.7227 30.7754 13.6054 30.8219 13.4775C30.8684 13.3496 30.8887 13.2136 30.8817 13.0777C30.8941 12.931 30.8765 12.7833 30.83 12.6437C30.7834 12.504 30.7089 12.3753 30.6109 12.2654V12.2654Z" fill="#382519"/>
</svg>
